<svg width="64" height="64" viewBox="0 0 64 64" fill="none" xmlns="http://www.w3.org/2000/svg">
  <rect width="64" height="64" rx="12" fill="url(#gradient)"/>
  <path d="M32 16C24.268 16 18 22.268 18 30C18 33.866 19.686 37.334 22.344 39.658C22.122 40.408 21.844 41.338 21.544 42.268C21.244 43.198 21.998 44.098 22.968 43.978C24.828 43.748 26.498 43.388 27.868 42.918C29.168 43.278 30.554 43.5 32 43.5C39.732 43.5 46 37.232 46 29.5C46 21.768 39.732 15.5 32 15.5V16Z" fill="white"/>
  <circle cx="27" cy="28" r="2" fill="#DC2626"/>
  <circle cx="37" cy="28" r="2" fill="#DC2626"/>
  <path d="M32 22V26M32 33V37" stroke="white" stroke-width="2" stroke-linecap="round"/>
  <path d="M24 30C24 30 26 34 32 34C38 34 40 30 40 30" stroke="white" stroke-width="2" stroke-linecap="round"/>
  <defs>
    <linearGradient id="gradient" x1="0" y1="0" x2="64" y2="64" gradientUnits="userSpaceOnUse">
      <stop stop-color="#DC2626"/>
      <stop offset="1" stop-color="#B91C1C"/>
    </linearGradient>
  </defs>
</svg>
